<mxfile host="app.diagrams.net" agent="Mozilla/5.0 (X11; Linux x86_64; rv:138.0) Gecko/20100101 Firefox/138.0" version="26.2.7">
  <diagram name="Page-1" id="lH5Z3lAxrBvs2syO8YQW">
    <mxGraphModel dx="476" dy="276" grid="1" gridSize="10" guides="1" tooltips="1" connect="1" arrows="1" fold="1" page="1" pageScale="1" pageWidth="850" pageHeight="1100" background="light-dark(#757774,#000000)" math="0" shadow="0">
      <root>
        <mxCell id="0" />
        <mxCell id="1" parent="0" />
        <mxCell id="P1_X3QhqcMqUGNyczKEQ-5" value="" style="shape=process;whiteSpace=wrap;html=1;backgroundOutline=1;labelBackgroundColor=none;fillColor=#5D7F99;strokeColor=#D0CEE2;fontColor=#1A1A1A;" vertex="1" parent="1">
          <mxGeometry x="190" y="140" width="250" height="180" as="geometry" />
        </mxCell>
        <mxCell id="P1_X3QhqcMqUGNyczKEQ-6" value="" style="shape=process;whiteSpace=wrap;html=1;backgroundOutline=1;labelBackgroundColor=none;fillColor=#5D7F99;strokeColor=#D0CEE2;fontColor=#1A1A1A;" vertex="1" parent="1">
          <mxGeometry x="190" y="140" width="60" height="20" as="geometry" />
        </mxCell>
        <mxCell id="P1_X3QhqcMqUGNyczKEQ-7" value="&lt;div&gt;Airline&lt;/div&gt;" style="text;html=1;align=center;verticalAlign=middle;whiteSpace=wrap;rounded=0;labelBackgroundColor=none;fontColor=light-dark(#A51D2D,#000000);labelBorderColor=none;textShadow=1;" vertex="1" parent="1">
          <mxGeometry x="190" y="135" width="60" height="25" as="geometry" />
        </mxCell>
        <mxCell id="P1_X3QhqcMqUGNyczKEQ-10" value="" style="shape=umlActor;verticalLabelPosition=bottom;verticalAlign=top;html=1;outlineConnect=0;strokeColor=#D0CEE2;fontColor=#1A1A1A;fillColor=#5D7F99;" vertex="1" parent="1">
          <mxGeometry x="230" y="180" width="10" height="10" as="geometry" />
        </mxCell>
        <mxCell id="P1_X3QhqcMqUGNyczKEQ-14" value="" style="shape=internalStorage;whiteSpace=wrap;html=1;backgroundOutline=1;strokeColor=#D0CEE2;fontColor=#1A1A1A;fillColor=#5D7F99;" vertex="1" parent="1">
          <mxGeometry x="232.5" y="230" width="5" height="50" as="geometry" />
        </mxCell>
        <mxCell id="P1_X3QhqcMqUGNyczKEQ-15" value="" style="endArrow=none;dashed=1;html=1;rounded=0;strokeColor=#736CA8;fontColor=#1A1A1A;" edge="1" parent="1" source="P1_X3QhqcMqUGNyczKEQ-14" target="P1_X3QhqcMqUGNyczKEQ-10">
          <mxGeometry width="50" height="50" relative="1" as="geometry">
            <mxPoint x="230" y="270" as="sourcePoint" />
            <mxPoint x="280" y="220" as="targetPoint" />
          </mxGeometry>
        </mxCell>
        <mxCell id="P1_X3QhqcMqUGNyczKEQ-17" value="&lt;font size=&quot;1&quot;&gt;Airport&lt;/font&gt;" style="shape=process;whiteSpace=wrap;html=1;backgroundOutline=1;strokeColor=#D0CEE2;fontColor=#1A1A1A;fillColor=#5D7F99;" vertex="1" parent="1">
          <mxGeometry x="290" y="180" width="40" height="10" as="geometry" />
        </mxCell>
        <mxCell id="P1_X3QhqcMqUGNyczKEQ-19" value="" style="shape=internalStorage;whiteSpace=wrap;html=1;backgroundOutline=1;strokeColor=#D0CEE2;fontColor=#1A1A1A;fillColor=#5D7F99;" vertex="1" parent="1">
          <mxGeometry x="307.5" y="240" width="5" height="40" as="geometry" />
        </mxCell>
        <mxCell id="P1_X3QhqcMqUGNyczKEQ-22" value="" style="endArrow=none;dashed=1;html=1;rounded=0;strokeColor=#736CA8;fontColor=#1A1A1A;exitX=0.5;exitY=0;exitDx=0;exitDy=0;entryX=0.5;entryY=1;entryDx=0;entryDy=0;" edge="1" parent="1" source="P1_X3QhqcMqUGNyczKEQ-19" target="P1_X3QhqcMqUGNyczKEQ-17">
          <mxGeometry width="50" height="50" relative="1" as="geometry">
            <mxPoint x="260" y="280" as="sourcePoint" />
            <mxPoint x="310" y="230" as="targetPoint" />
          </mxGeometry>
        </mxCell>
        <mxCell id="P1_X3QhqcMqUGNyczKEQ-24" value="" style="endArrow=classic;html=1;rounded=0;strokeColor=#736CA8;fontColor=#1A1A1A;exitX=1.006;exitY=0.198;exitDx=0;exitDy=0;exitPerimeter=0;entryX=0;entryY=0;entryDx=0;entryDy=0;" edge="1" parent="1" source="P1_X3QhqcMqUGNyczKEQ-14" target="P1_X3QhqcMqUGNyczKEQ-19">
          <mxGeometry width="50" height="50" relative="1" as="geometry">
            <mxPoint x="220" y="260" as="sourcePoint" />
            <mxPoint x="270" y="210" as="targetPoint" />
          </mxGeometry>
        </mxCell>
        <mxCell id="P1_X3QhqcMqUGNyczKEQ-28" value="&lt;font style=&quot;font-size: 4px;&quot;&gt;request based on desires&lt;/font&gt;" style="text;html=1;align=center;verticalAlign=middle;whiteSpace=wrap;rounded=0;fontColor=#1A1A1A;" vertex="1" parent="1">
          <mxGeometry x="232.5" y="215" width="60" height="30" as="geometry" />
        </mxCell>
      </root>
    </mxGraphModel>
  </diagram>
</mxfile>
